# xmcd CD database file
#
# Track frame offsets:
#	150
#	17131
#	43051
#	57901
#	77401
#	93423
#	120423
#	141045
#	159575
#	183871
#	194918
#	211193
#	232943
#	248377
#	278827
#	283686
#
# Disc length: 4051 seconds
#
# Revision: 0
# Processed by: cddbd v1.5PL3 Copyright (c) Steve Scherf et al.
# Submitted via: CDex 1.51
#
DISCID=d40fd110
DTITLE=Maria João and Mário Laginha - Undercovers
DYEAR=2002
DGENRE=Jazz
TTITLE0=Wake Up Dead Man
TTITLE1=Tom Traubert's blues
TTITLE2=Black Bird
TTITLE3=Unravel
TTITLE4=O Quereres
TTITLE5=Charles On A Sunday With Sunday Clothes
TTITLE6=From Both Sides Now
TTITLE7=Love Is The Seventh Wave
TTITLE8=O Marco marciano
TTITLE9=Este Seu olhar
TTITLE10=We'll Be just Beginning
TTITLE11=Lately
TTITLE12=God Only Knows
TTITLE13=Corazón Partió
TTITLE14=Take Me home
TTITLE15=Cantiga (Caico)
EXTD=YEAR: 2002
EXTT0=
EXTT1=
EXTT2=
EXTT3=
EXTT4=
EXTT5=
EXTT6=
EXTT7=
EXTT8=
EXTT9=
EXTT10=
EXTT11=
EXTT12=
EXTT13=
EXTT14=
EXTT15=
PLAYORDER=
